<?xml version="1.0" standalone="no"?>
<!DOCTYPE svg PUBLIC "-//W3C//DTD SVG 1.1//EN" "http://www.w3.org/Graphics/SVG/1.1/DTD/svg11.dtd" >
<!--
2013-9-30: Created.
-->
<svg>
<metadata>
Created by iconfont
</metadata>
<defs>

<font id="iconfont" horiz-adv-x="1024" >
  <font-face
    font-family="iconfont"
    font-weight="500"
    font-stretch="normal"
    units-per-em="1024"
    ascent="896"
    descent="-128"
  />
    <missing-glyph />
    
    <glyph glyph-name="wifi" unicode="&#59731;" d="M512.2 704 512.2 704c-159.8 0-311.4-59.8-427.8-168.2L64 516.8l19.8-19.6 64.6-64 18.6-18.4 19.2 17.6c89 81.8 204.6 127 325.6 127 121 0 236.8-45.2 325.6-127l19.2-17.6 18.6 18.4 64.6 64 19.8 19.6-20.4 19C823.2 644.2 671.4 704 512.2 704zM794.8 383.2c-77.6 70.2-177.8 108.8-282.2 108.8l-0.2 0-0.6 0-17 0-0.2-0.4c-98.4-4-192-42.2-265.2-108.4l-21-19 20.2-20 65.4-64.8 18.2-18 19.2 16.8c50.6 44.4 114.8 69 180.6 69 66.2 0 130.4-24.6 181-69l19.2-16.8 18.2 18 65.4 64.8 20.2 20L794.8 383.2zM512.4 64l19.2 19 105.6 104.4 21.2 21-23.2 19c-30.8 22.8-64.8 40-123 40-58 0-89.8-18.8-123-40l-23-19 21.2-21 105.6-104.4L512.4 64z"  horiz-adv-x="1024" />

    
    <glyph glyph-name="sousuo" unicode="&#58922;" d="M989.024-28.416l-189.536 189.248c53.216 72.736 82.304 161.088 82.304 251.2 0 235.072-191.552 426.336-427.008 426.336-235.456 0-427.04-191.264-427.04-426.336 0-235.104 191.584-426.368 427.04-426.368 64.128 0 125.952 14.112 183.744 41.92 12.256 5.888 17.408 20.576 11.52 32.832-5.92 12.256-20.576 17.376-32.896 11.488-51.072-24.576-105.696-37.024-162.336-37.024-208.32 0-377.76 169.216-377.76 377.184 0 207.968 169.44 377.152 377.76 377.152 208.288 0 377.728-169.216 377.728-377.152 0-86.24-30.144-170.688-84.864-237.792-8-9.792-7.264-24 1.664-32.928l204.864-204.544c4.8-4.8 11.104-7.2 17.408-7.2 6.304 0 12.608 2.4 17.408 7.2C998.656-53.6 998.656-38.016 989.024-28.416z"  horiz-adv-x="1024" />

    
    <glyph glyph-name="rili" unicode="&#58930;" d="M767.989248 709.80366l-69.815436 0 0 23.272495c0 12.852708-10.419786 23.271471-23.272495 23.271471s-23.272495-10.418762-23.272495-23.271471l0-23.272495L372.369128 709.80366l0 23.272495c0 12.852708-10.418762 23.271471-23.271471 23.271471s-23.271471-10.418762-23.271471-23.271471l0-23.272495L256.010752 709.80366c-64.160121 0-116.358377-52.198256-116.358377-116.358377l0-372.347625c0-64.160121 52.198256-116.359401 116.358377-116.359401l511.978497 0c64.160121 0 116.359401 52.19928 116.359401 116.359401L884.348649 593.445283C884.348649 657.605405 832.14937 709.80366 767.989248 709.80366zM837.804684 221.097658c0-38.496687-31.318749-69.815436-69.815436-69.815436L256.010752 151.282222c-38.496687 0-69.815436 31.318749-69.815436 69.815436L186.195316 593.445283c0 38.496687 31.318749 69.815436 69.815436 69.815436l69.815436 0 0-46.542941c0-12.852708 10.418762-23.271471 23.271471-23.271471s23.271471 10.418762 23.271471 23.271471l0 46.542941 279.260719 0 0-46.542941c0-12.852708 10.419786-23.271471 23.272495-23.271471s23.272495 10.418762 23.272495 23.271471l0 46.542941L767.989248 663.260719c38.496687 0 69.815436-31.318749 69.815436-69.815436L837.804684 221.097658zM360.711378 523.629848 290.896966 523.629848c-12.852708 0-23.271471-10.418762-23.271471-23.271471s10.418762-23.271471 23.271471-23.271471l69.815436 0c12.852708 0 23.271471 10.418762 23.271471 23.271471S373.564086 523.629848 360.711378 523.629848zM546.907718 523.629848l-69.815436 0c-12.852708 0-23.271471-10.418762-23.271471-23.271471s10.418762-23.271471 23.271471-23.271471l69.815436 0c12.852708 0 23.272495 10.418762 23.272495 23.271471S559.760426 523.629848 546.907718 523.629848zM733.105082 523.629848 663.289646 523.629848c-12.852708 0-23.272495-10.418762-23.272495-23.271471s10.419786-23.271471 23.272495-23.271471l69.815436 0c12.852708 0 23.272495 10.418762 23.272495 23.271471S745.95779 523.629848 733.105082 523.629848zM360.711378 430.542941 290.896966 430.542941c-12.852708 0-23.271471-10.418762-23.271471-23.271471s10.418762-23.271471 23.271471-23.271471l69.815436 0c12.852708 0 23.271471 10.418762 23.271471 23.271471S373.564086 430.542941 360.711378 430.542941zM546.907718 430.542941l-69.815436 0c-12.852708 0-23.271471-10.418762-23.271471-23.271471s10.418762-23.271471 23.271471-23.271471l69.815436 0c12.852708 0 23.272495 10.418762 23.272495 23.271471S559.760426 430.542941 546.907718 430.542941zM733.105082 430.542941 663.289646 430.542941c-12.852708 0-23.272495-10.418762-23.272495-23.271471s10.419786-23.271471 23.272495-23.271471l69.815436 0c12.852708 0 23.272495 10.418762 23.272495 23.271471S745.95779 430.542941 733.105082 430.542941zM360.711378 337.456035 290.896966 337.456035c-12.852708 0-23.271471-10.419786-23.271471-23.272495s10.418762-23.272495 23.271471-23.272495l69.815436 0c12.852708 0 23.271471 10.419786 23.271471 23.272495S373.564086 337.456035 360.711378 337.456035zM546.907718 337.456035l-69.815436 0c-12.852708 0-23.271471-10.419786-23.271471-23.272495s10.418762-23.272495 23.271471-23.272495l69.815436 0c12.852708 0 23.272495 10.419786 23.272495 23.272495S559.760426 337.456035 546.907718 337.456035zM733.105082 337.456035 663.289646 337.456035c-12.852708 0-23.272495-10.419786-23.272495-23.272495s10.419786-23.272495 23.272495-23.272495l69.815436 0c12.852708 0 23.272495 10.419786 23.272495 23.272495S745.95779 337.456035 733.105082 337.456035z"  horiz-adv-x="1024" />

    
    <glyph glyph-name="z-weixin" unicode="&#59081;" d="M315.828 579.305c-9.556 0-19.058-3.888-25.753-10.635-6.693-6.746-10.635-16.143-10.635-25.753 0-9.501 3.883-19.005 10.635-25.753 6.748-6.639 16.197-10.582 25.753-10.582 9.504 0 19.008 3.943 25.698 10.635 6.748 6.748 10.637 16.249 10.637 25.699 0 9.61-3.89 19.006-10.637 25.753-6.69 6.748-16.194 10.635-25.698 10.635v0zM591.231 383.326c-7.453 0-14.852-3.076-20.139-8.316-5.293-5.234-8.373-12.634-8.373-20.137 0-7.505 3.080-14.846 8.318-20.139 5.234-5.29 12.739-8.314 20.192-8.314 7.451 0 14.844 3.078 20.139 8.314 5.286 5.238 8.31 12.634 8.31 20.139 0 7.503-3.076 14.848-8.31 20.137-5.242 5.293-12.745 8.316-20.138 8.316v0zM501.39 506.584c9.501 0 19.005 3.943 25.757 10.635 6.691 6.748 10.581 16.249 10.581 25.753 0 9.61-3.89 19.007-10.581 25.753-6.807 6.694-16.309 10.582-25.757 10.582-9.556 0-19.003-3.888-25.754-10.635-6.748-6.746-10.635-16.143-10.635-25.753 0-9.501 3.888-19.005 10.635-25.753 6.751-6.639 16.197-10.582 25.754-10.582v0zM803.84 815.942h-583.736c-77.314 0-139.941-62.844-139.941-140.426v-583.031c0-77.585 62.627-140.427 139.941-140.427l583.788-0c77.316 0 139.943 62.841 139.943 140.427v583.031c-0.054 77.583-62.686 140.426-139.995 140.426v0zM404.264 237.176c-32.663 0-59.013 6.693-91.732 13.119l-91.508-45.891 26.186 78.769c-65.544 45.839-104.741 104.847-104.741 176.708 0 124.666 117.914 222.707 261.849 222.707 128.763 0 241.547-78.335 264.169-183.887-8.312 0.972-16.735 1.565-25.213 1.565-124.39 0-222.597-92.863-222.597-207.209 0-19.113 2.968-37.361 8.042-54.907-8.097-0.539-16.248-0.973-24.455-0.973v0zM790.449 145.449l19.705-65.382-71.803 39.355c-26.184-6.586-52.53-13.171-78.606-13.171-124.558 0-222.654 85.14-222.654 190.041 0 104.687 98.097 190.046 222.654 190.046 117.692 0 222.433-85.306 222.433-190.046 0-59.116-39.141-111.381-91.728-150.844v0zM733.87 383.326c-7.451 0-14.85-3.076-20.139-8.316-5.295-5.234-8.318-12.634-8.318-20.137 0-7.505 3.082-14.846 8.318-20.139 5.234-5.29 12.687-8.314 20.139-8.314s14.844 3.078 20.137 8.314c5.29 5.238 8.312 12.634 8.312 20.139 0 7.503-3.076 14.848-8.312 20.137-5.234 5.293-12.686 8.316-20.137 8.316v0zM733.87 383.326z"  horiz-adv-x="1024" />

    
    <glyph glyph-name="shoucang" unicode="&#58939;" d="M694.830025 785.532049c-76.670194 0-137.458675-38.335097-184.008874-101.313453-47.096644 62.978357-107.339704 101.313453-184.009897 101.313453-138.554636 0-251.372098-122.126478-251.372098-272.730545 0-89.814562 40.524972-152.793942 72.839959-203.178469 93.64582-147.31516 319.826166-305.58686 329.682651-313.254493 9.856485-7.667633 20.810978-10.951423 32.30987-10.951423 11.502985 0 22.454408 3.831258 32.30987 10.951423 9.860579 7.667633 236.036831 166.484755 330.23626 313.254493 32.30987 50.385551 72.833819 113.364931 72.833819 203.178469C945.653631 662.858102 832.842309 785.532049 694.830025 785.532049L694.830025 785.532049 694.830025 785.532049 694.830025 785.532049 694.830025 785.532049z"  horiz-adv-x="1024" />

    
    <glyph glyph-name="guanbi" unicode="&#58932;" d="M765.56288 652.30848c-139.63264 140.288-366.6944 140.288-506.96192 0-140.30848-140.30848-140.30848-367.34976 0-506.94144 140.288-140.32896 367.32928-140.32896 506.96192 0C905.87136 284.95872 905.87136 512 765.56288 652.30848zM719.48288 229.39648c10.15808-10.15808 10.15808-27.11552 0-37.96992-10.83392-10.19904-27.79136-10.19904-37.96992 0l-169.10336 169.08288-169.10336-169.08288c-10.83392-10.19904-27.79136-10.19904-37.94944 0-10.8544 10.83392-10.8544 27.79136 0 37.96992l169.10336 169.08288-169.10336 169.08288c-10.8544 10.8544-10.8544 27.79136 0 37.96992 10.15808 10.83392 27.11552 10.83392 37.94944 0l169.10336-169.08288 169.10336 169.08288c10.15808 10.83392 27.11552 10.83392 37.96992 0 10.15808-10.15808 10.15808-27.11552 0-37.96992l-169.10336-169.08288L719.48288 229.39648z"  horiz-adv-x="1024" />

    
    <glyph glyph-name="dizhi" unicode="&#58938;" d="M511.998977 830.709995c-173.638689 0-314.904063-138.294716-314.904063-308.281225 0-77.603449 31.020504-185.005574 85.10633-294.67023 53.746088-108.971877 124.852566-209.287607 195.185424-275.377838 8.955976-9.602705 21.51092-15.08865 34.612309-15.08865 12.913101 0 25.359574 5.358031 34.296107 14.736633 149.549038 140.014894 280.608979 406.358985 280.608979 570.401108C826.904063 692.415278 685.637666 830.709995 511.998977 830.709995zM517.467525-18.127613l-1.128707-1.13894c-0.816598-0.8913-2.232854-1.952468-4.339842-1.952468-2.245134 0-3.695159 1.251503-4.361331 1.997494l-1.294482 1.327228C366.207519 113.420445 238.584863 370.958986 238.584863 522.427746c0 147.109476 122.652458 266.791276 273.414113 266.791276 150.761656 0 273.415137-119.6818 273.415137-266.791276C785.414113 370.516918 657.700383 112.869906 517.467525-18.127613zM513.044796 714.383616c-91.091648 0-165.199483-74.112951-165.199483-165.210739 0-91.076298 74.107835-165.172877 165.199483-165.172877 91.083461 0 165.184133 74.096579 165.184133 165.172877C678.228929 640.270664 604.128257 714.383616 513.044796 714.383616zM513.044796 425.48995c-68.213591 0-123.709533 55.484685-123.709533 123.682927 0 68.219731 55.495942 123.720789 123.709533 123.720789 68.205405 0 123.694183-55.501058 123.694183-123.720789C636.738979 480.974635 581.2502 425.48995 513.044796 425.48995z"  horiz-adv-x="1024" />

    
    <glyph glyph-name="youjiantou" unicode="&#59104;" d="M326.4 57.6l352 352c12.8 12.8 32 12.8 44.8 0l0 0c12.8-12.8 12.8-32 0-44.8l-352-352c-12.8-12.8-32-12.8-44.8 0l0 0C313.6 19.2 313.6 44.8 326.4 57.6zM678.4 364.8 326.4 710.4c-12.8 12.8-12.8 32 0 44.8l0 0C339.2 768 358.4 768 371.2 761.6l352-352c12.8-12.8 12.8-32 0-44.8l0 0C710.4 352 684.8 352 678.4 364.8z"  horiz-adv-x="1024" />

    
    <glyph glyph-name="xiajiantou" unicode="&#58897;" d="M507.8 168.272a30.016 30.016 0 0 0-21.288 8.824L231.104 432.504a30.088 30.088 0 0 0 0 42.568 30.088 30.088 0 0 0 42.568 0l234.128-234.128 234.16 234.128a30.088 30.088 0 0 0 42.568 0 30.088 30.088 0 0 0 0-42.568L529.08 177.096a30 30 0 0 0-21.28-8.824z"  horiz-adv-x="1024" />

    
    <glyph glyph-name="order-success2" unicode="&#58923;" d="M148.178824 418.936471h193.957647a30.117647 30.117647 0 0 1 30.117647 30.117647V707.463529a30.117647 30.117647 0 0 1-30.117647 30.117647H148.178824a30.117647 30.117647 0 0 1-30.117648-30.117647v-259.011764a30.117647 30.117647 0 0 1 30.117648-29.515294zM180.705882 677.345882h131.312942v-198.77647H180.705882zM477.665882 668.310588h169.86353a30.117647 30.117647 0 0 1 0 60.235294H477.665882a30.117647 30.117647 0 0 1 0-60.235294zM477.665882 538.804706h169.86353a30.117647 30.117647 0 0 1 0 60.235294H477.665882a30.117647 30.117647 0 0 1 0-60.235294zM466.221176 349.665882H148.178824a30.117647 30.117647 0 0 1 0-60.235294h318.042352a30.117647 30.117647 0 0 1 0 60.235294zM466.221176 220.15999999999997H148.178824a30.117647 30.117647 0 0 1 0-60.235294h318.042352a30.117647 30.117647 0 0 1 0 60.235294zM466.221176 90.65411800000004H148.178824a30.117647 30.117647 0 0 1 0-60.235294h318.042352a30.117647 30.117647 0 0 1 0 60.235294zM1024 170.16470600000002a244.555294 244.555294 0 0 1-228.291765 240.941176V865.882353a30.117647 30.117647 0 0 1-30.117647 30.117647H30.117647a30.117647 30.117647 0 0 1-30.117647-30.117647v-963.764706a30.117647 30.117647 0 0 1 30.117647-30.117647h735.472941a30.117647 30.117647 0 0 1 30.117647 30.117647v25.298824A244.555294 244.555294 0 0 1 1024 170.16470600000002zM60.235294 835.764706h675.237647v-425.86353A240.941176 240.941176 0 0 1 722.823529-67.76470600000005H60.235294z m718.004706-849.92a183.717647 183.717647 0 1 0 154.804706 284.310588 29.515294 29.515294 0 0 1-41.562353 0l-156.611765-136.734118-66.258823 83.124706a30.117647 30.117647 0 0 1-46.98353-37.345882l86.136471-107.821176a30.117647 30.117647 0 0 1 21.082353-11.444706 29.515294 29.515294 0 0 1 19.877647 7.830588l180.705882 160.225882a30.117647 30.117647 0 0 1 9.035294 30.117647 180.705882 180.705882 0 0 0 25.298824-87.943529 184.922353 184.922353 0 0 0-185.524706-184.32z"  horiz-adv-x="1024" />

    
    <glyph glyph-name="jiudian" unicode="&#58953;" d="M913.162822 553.017026c-222.488061 10.591494-307.780264 158.458881-314.970208 171.664899V869.321175a26.678825 26.678825 0 0 1-26.678825 26.678825H112.131101A26.678825 26.678825 0 0 1 85.452276 869.321175v-970.64235a26.678825 26.678825 0 0 1 26.678825-26.678825h799.737798a26.678825 26.678825 0 0 1 26.678825 26.678825V526.378219a26.678825 26.678825 0 0 1-25.384902 26.638807zM683.804963-16.05565a26.678825 26.678825 0 0 0-26.678825-26.678825h-58.693415V554.777828l70.885638-36.349899a26.678825 26.678825 0 0 0 14.499942-23.744154z m171.091305 170.531049a26.678825 26.678825 0 0 0-26.678825-26.678825h-58.693415V469.1388l68.417847-26.678825a26.678825 26.678825 0 0 0 16.981072-24.851325zM170.811177 722.721032l340.79531 0 0-84.331766-340.79531 0 0 84.331766ZM170.811177 383.699863l260.118544 0 0-86.706181-260.118544 0 0 86.706181ZM170.811177 554.337628l340.715274 0 0-86.706181-340.715274 0 0 86.706181Z"  horiz-adv-x="1024" />

    
    <glyph glyph-name="feiyongxinxi" unicode="&#58986;" d="M170.666667 839.111111h682.666666c62.577778 0 113.777778-51.2 113.777778-113.777778v-682.666666c0-62.577778-51.2-113.777778-113.777778-113.777778H170.666667c-62.577778 0-113.777778 51.2-113.777778 113.777778V725.333333c0 62.577778 51.2 113.777778 113.777778 113.777778z m0-56.888889c-34.133333 0-56.888889-22.755556-56.888889-56.888889v-682.666666c0-34.133333 22.755556-56.888889 56.888889-56.888889h682.666666c34.133333 0 56.888889 22.755556 56.888889 56.888889V725.333333c0 34.133333-22.755556 56.888889-56.888889 56.888889H170.666667z m324.266666-352.711111c0-28.444444-11.377778-51.2-28.444444-73.955555-17.066667-17.066667-45.511111-28.444444-73.955556-34.133334v-51.2h-39.822222v51.2c-56.888889 5.688889-91.022222 39.822222-102.4 96.711111l62.577778 17.066667c5.688889-34.133333 28.444444-56.888889 62.577778-56.888889 17.066667 0 28.444444 5.688889 34.133333 11.377778 5.688889 5.688889 11.377778 17.066667 11.377778 28.444444s-5.688889 22.755556-11.377778 28.444445c-5.688889 5.688889-22.755556 11.377778-51.2 22.755555-22.755556 5.688889-39.822222 17.066667-56.888889 22.755556-11.377778 5.688889-22.755556 17.066667-34.133333 34.133333-5.688889 11.377778-11.377778 28.444444-11.377778 51.2s5.688889 45.511111 22.755556 68.266667c17.066667 17.066667 39.822222 34.133333 68.266666 34.133333v39.822222h39.822222v-39.822222c45.511111-5.688889 79.644444-34.133333 91.022223-79.644444l-56.888889-22.755556c-11.377778 34.133333-28.444444 51.2-51.2 51.2-11.377778 0-22.755556-5.688889-28.444445-11.377778-5.688889-5.688889-11.377778-17.066667-11.377777-28.444444s5.688889-17.066667 11.377777-22.755556c5.688889-5.688889 22.755556-11.377778 45.511111-22.755555s45.511111-17.066667 56.888889-28.444445c11.377778-5.688889 22.755556-17.066667 34.133334-34.133333 11.377778-17.066667 17.066667-34.133333 17.066666-51.2zM597.333333 668.444444h170.666667c17.066667 0 28.444444-11.377778 28.444444-28.444444s-11.377778-28.444444-28.444444-28.444444h-170.666667c-17.066667 0-28.444444 11.377778-28.444444 28.444444s11.377778 28.444444 28.444444 28.444444z m0-170.666666h170.666667c17.066667 0 28.444444-11.377778 28.444444-28.444445s-11.377778-28.444444-28.444444-28.444444h-170.666667c-17.066667 0-28.444444 11.377778-28.444444 28.444444s11.377778 28.444444 28.444444 28.444445z m0-170.666667h170.666667c17.066667 0 28.444444-11.377778 28.444444-28.444444s-11.377778-28.444444-28.444444-28.444445h-170.666667c-17.066667 0-28.444444 11.377778-28.444444 28.444445s11.377778 28.444444 28.444444 28.444444z m-341.333333-170.666667h512c17.066667 0 28.444444-11.377778 28.444444-28.444444s-11.377778-28.444444-28.444444-28.444444h-512c-17.066667 0-28.444444 11.377778-28.444444 28.444444s11.377778 28.444444 28.444444 28.444444z"  horiz-adv-x="1024" />

    
    <glyph glyph-name="dingdan" unicode="&#59099;" d="M352 160h-32c-17.6 0-32 14.4-32 32s14.4 32 32 32h32c17.6 0 32-14.4 32-32s-14.4-32-32-32z m0 256h-32c-17.6 0-32 14.4-32 32s14.4 32 32 32h32c17.6 0 32-14.4 32-32s-14.4-32-32-32z m352-256H480c-17.6 0-32 14.4-32 32s14.4 32 32 32h224c17.6 0 32-14.4 32-32s-14.4-32-32-32z m0 256H480c-17.6 0-32 14.4-32 32s14.4 32 32 32h224c17.6 0 32-14.4 32-32s-14.4-32-32-32z m96-480H224c-52.8 0-96 43.2-96 96V672c0 52.8 43.2 96 96 96 17.6 0 32-14.4 32-32s-14.4-32-32-32-32-14.4-32-32v-640c0-17.6 14.4-32 32-32h576c17.6 0 32 14.4 32 32V672c0 17.6-14.4 32-32 32s-32 14.4-32 32 14.4 32 32 32c52.8 0 96-43.2 96-96v-640c0-52.8-43.2-96-96-96zM608 640H416c-52.8 0-96 43.2-96 96s43.2 96 96 96h192c52.8 0 96-43.2 96-96s-43.2-96-96-96zM416 768c-17.6 0-32-14.4-32-32s14.4-32 32-32h192c17.6 0 32 14.4 32 32s-14.4 32-32 32H416z"  horiz-adv-x="1024" />

    
    <glyph glyph-name="tupian" unicode="&#59230;" d="M784 784H240c-88 0-160-72-160-160v-480c0-88 72-160 160-160h544c88 0 160 72 160 160V624c0 88-72 160-160 160z m96-640c0-52.8-43.2-96-96-96H240c-52.8 0-96 43.2-96 96V624c0 52.8 43.2 96 96 96h544c52.8 0 96-43.2 96-96v-480zM352 416c52.8 0 96 43.2 96 96s-43.2 96-96 96-96-43.2-96-96 43.2-96 96-96z m0 128c17.6 0 32-14.4 32-32s-14.4-32-32-32-32 14.4-32 32 14.4 32 32 32z m462.4-379.2l-3.2 3.2-177.6 177.6c-25.6 25.6-65.6 25.6-91.2 0l-80-80-36.8 36.8c-25.6 25.6-65.6 25.6-91.2 0L200 168c-4.8-6.4-8-14.4-8-24 0-17.6 14.4-32 32-32 9.6 0 16 3.2 22.4 9.6L380.8 256l134.4-134.4c6.4-6.4 14.4-9.6 24-9.6 17.6 0 32 14.4 32 32 0 9.6-4.8 17.6-9.6 24l-52.8 52.8 80 80L769.6 120c6.4-4.8 12.8-8 20.8-8 17.6 0 32 14.4 32 32 0 8-3.2 16-8 20.8z"  horiz-adv-x="1024" />

    
    <glyph glyph-name="TIFFANYSROOM_huaban" unicode="&#59256;" d="M411.2896 394.496h398.4384v-436.3776H411.2896zM809.7792-49.5616H411.2896a7.68 7.68 0 0 0-7.68 7.68V394.24a7.68 7.68 0 0 0 7.68 7.68h398.4896a7.68 7.68 0 0 0 7.68-7.68v-436.3776a7.68 7.68 0 0 0-7.68-7.424z m-390.8096 15.36h383.1296V386.816H418.9696zM809.7792-41.8816h-192.7168l146.7904 436.3776h45.9264v-436.3776zM809.7792-49.5616H411.2896a7.68 7.68 0 0 0-7.68 7.68V394.24a7.68 7.68 0 0 0 7.68 7.68h398.4896a7.68 7.68 0 0 0 7.68-7.68v-436.3776a7.68 7.68 0 0 0-7.68-7.424z m-390.8096 15.36h383.1296V386.816H418.9696zM439.296 870.7584h342.528v-93.3888H439.296zM781.7728 769.6896H439.296a7.68 7.68 0 0 0-7.68 7.68V870.7584a7.68 7.68 0 0 0 7.68 7.68h342.4768a7.68 7.68 0 0 0 7.68-7.68v-93.3888a7.68 7.68 0 0 0-7.68-7.68z m-334.7968 15.36h327.1168V863.0784H446.976zM365.2608-41.8816h490.5472v-60.8768H365.2608zM855.808-110.4384H365.2608a7.68 7.68 0 0 0-7.68 7.68v60.8768a7.68 7.68 0 0 0 7.68 7.68h490.5472a7.68 7.68 0 0 0 7.68-7.68v-60.8768a7.68 7.68 0 0 0-7.68-7.68z m-482.8672 15.36h475.1872v45.5168H372.9408zM610.5088 162.0992m-143.2576 0a143.2576 143.2576 0 1 1 286.5152 0 143.2576 143.2576 0 1 1-286.5152 0ZM610.5088 11.1104a150.9888 150.9888 0 1 0 150.9888 150.9888 151.1424 151.1424 0 0 0-150.9888-150.9888z m0 286.72a135.6288 135.6288 0 1 1 135.6288-135.5776 135.7312 135.7312 0 0 1-135.6288 135.424zM610.5088 162.0992m-30.2592 0a30.2592 30.2592 0 1 1 60.5184 0 30.2592 30.2592 0 1 1-60.5184 0ZM610.5088 124.16a37.9392 37.9392 0 1 0 37.9392 37.9392 37.9392 37.9392 0 0 0-37.9392-37.9392z m0 60.5184a22.5792 22.5792 0 1 1 22.5792-22.5792 22.5792 22.5792 0 0 1-22.5792 22.5792zM610.5088 250.368a10.24 10.24 0 1 1-10.24 10.24 10.24 10.24 0 0 1 10.24-10.24zM610.5088 242.688a17.92 17.92 0 1 0 17.92 17.92 17.92 17.92 0 0 0-17.92-17.92z m0 20.48a2.56 2.56 0 0 1-2.56-2.56 2.6112 2.6112 0 0 1 2.56-2.56 2.56 2.56 0 0 1 2.56 2.56 2.56 2.56 0 0 1-2.56 2.56zM610.5088 63.5392m-10.24 0a10.24 10.24 0 1 1 20.48 0 10.24 10.24 0 1 1-20.48 0ZM610.5088 45.6704a17.92 17.92 0 1 0 17.92 17.8688 17.92 17.92 0 0 0-17.92-17.8688z m0 20.48a2.56 2.56 0 1 1 0-5.12 2.56 2.56 0 1 1 0 5.12zM548.096 224.512a10.24 10.24 0 1 1-14.4896 0 10.24 10.24 0 0 1 14.4896 0zM540.8768 213.8624a17.92 17.92 0 1 0 12.6464 5.12 17.8688 17.8688 0 0 0-12.6464-5.12z m0 20.48a2.6112 2.6112 0 0 1-1.8432-0.768 2.56 2.56 0 1 1 3.6352-3.6352 2.56 2.56 0 0 1-1.792 4.352zM680.189879 92.41088m-7.240773-7.240773a10.24 10.24 0 1 1 14.481547 14.481546 10.24 10.24 0 1 1-14.481547-14.481546ZM680.192 74.496a17.8688 17.8688 0 0 0-12.6464 30.72 18.3296 18.3296 0 0 0 25.6 0 17.92 17.92 0 0 0 0-25.2928 17.8688 17.8688 0 0 0-12.9536-5.4272z m0 20.48a2.7136 2.7136 0 0 1-1.792-0.7168 2.4064 2.4064 0 0 1-0.768-1.792 2.6112 2.6112 0 0 1 2.56-2.56 2.6112 2.6112 0 0 1 1.8432 0.768 2.6112 2.6112 0 0 1 0.7168 1.792 2.56 2.56 0 0 1-0.7168 1.792 2.6112 2.6112 0 0 1-1.8432 0.7168z m-7.2192 4.6592zM522.24 162.0992a10.24 10.24 0 1 1-10.24-10.24 10.24 10.24 0 0 1 10.24 10.24zM512 144.1792a17.92 17.92 0 1 0 17.92 17.92 17.92 17.92 0 0 0-17.92-17.92z m0 20.48a2.56 2.56 0 0 1-2.56-2.56 2.56 2.56 0 0 1 2.56-2.56 2.56 2.56 0 0 1 2.56 2.56 2.6112 2.6112 0 0 1-2.56 2.56zM709.0688 162.0992m-10.24 0a10.24 10.24 0 1 1 20.48 0 10.24 10.24 0 1 1-20.48 0ZM709.0688 144.1792a17.92 17.92 0 1 0 17.92 17.92 17.92 17.92 0 0 0-17.92-17.92z m0 20.48a2.56 2.56 0 0 1-2.56-2.56 2.56 2.56 0 0 1 2.56-2.56 2.56 2.56 0 0 1 2.56 2.56 2.6112 2.6112 0 0 1-2.56 2.56zM548.096 99.6864a10.24 10.24 0 1 1 0-14.4896 10.24 10.24 0 0 1 0 14.4896zM540.8768 74.496a17.7664 17.7664 0 0 0-12.6976 5.12 17.92 17.92 0 1 0 25.6 25.344 17.8688 17.8688 0 0 0 5.12-12.6976 18.0224 18.0224 0 0 0-5.12-12.6464 17.7152 17.7152 0 0 0-12.9024-5.12z m0 20.48a2.6112 2.6112 0 0 1-1.8432-0.768 2.56 2.56 0 0 1 0-3.584 2.56 2.56 0 0 1 3.6352 0 2.5088 2.5088 0 0 1 0.768 1.792 2.4064 2.4064 0 0 1-0.768 1.792 2.56 2.56 0 0 1-1.792 0.768zM680.200998 231.760678m-7.240774-7.240774a10.24 10.24 0 1 1 14.481547 14.481547 10.24 10.24 0 1 1-14.481547-14.481547ZM680.192 213.8624a17.7664 17.7664 0 0 0-12.6464 5.12 17.9712 17.9712 0 1 0 12.6464-5.12z m0 20.48a2.5088 2.5088 0 0 1-1.792-0.768 2.56 2.56 0 0 1 0-3.6352 2.7136 2.7136 0 0 1 1.792-0.7168 2.56 2.56 0 0 1 1.792 0.7168 2.6112 2.6112 0 0 1 0.768 1.8432 2.7136 2.7136 0 0 1-0.7168 1.792 2.6112 2.6112 0 0 1-1.8432 0.768zM765.4912 777.3696H439.296v-27.392h51.6608a232.1408 232.1408 0 0 1 119.552-31.9488 231.8848 231.8848 0 0 1 119.552 31.9488h51.712v27.392zM610.5088 710.3488A239.6672 239.6672 0 0 0 488.8576 742.4H439.296a7.68 7.68 0 0 0-7.68 7.68v27.2896a7.68 7.68 0 0 0 7.68 7.68h342.4768a7.68 7.68 0 0 0 7.68-7.68v-27.392a7.68 7.68 0 0 0-7.68-7.68H732.16a239.7184 239.7184 0 0 0-121.6512-31.9488zM446.976 757.76h43.9808a7.8336 7.8336 0 0 0 3.9936-1.1264 223.6416 223.6416 0 0 1 115.5584-30.72 223.6928 223.6928 0 0 1 115.6096 30.72 7.68 7.68 0 0 0 3.9424 1.1264h44.032v11.9296H446.976zM364.8-80.0256H246.3232a147.6096 147.6096 0 0 0-112.64 242.7392l31.6928 37.5296a132.7616 132.7616 0 0 1 3.0208 166.7584l-25.6 32.5632a410.4704 410.4704 0 0 0-87.04 251.9552 180.4288 180.4288 0 0 0 180.224 180.224H439.296a7.68 7.68 0 0 0 0-15.36H236.032a165.0176 165.0176 0 0 1-164.864-164.8128 395.3152 395.3152 0 0 1 83.6608-242.5344l25.6-32.5632a148.1216 148.1216 0 0 0-3.3792-186.112l-31.6928-37.5808a132.1984 132.1984 0 0 1 101.0688-217.4464h118.3744a7.68 7.68 0 0 0 0-15.36zM934.5024 816.384H781.312a7.68 7.68 0 0 0 0 15.36h153.1904a7.68 7.68 0 0 0 0-15.36zM623.36 529.0496v117.248a37.12 37.12 0 1 1-25.6 0v-117.248a103.7312 103.7312 0 0 0-103.7824-103.68v-30.72H727.04v30.72a103.68 103.68 0 0 0-103.68 103.68zM727.04 386.816H493.9776A7.68 7.68 0 0 0 486.4 394.24v30.72a7.7312 7.7312 0 0 0 7.68 7.68 96.1024 96.1024 0 0 1 96.0512 96v112.64a44.8 44.8 0 1 0 40.96 0v-112.2304A96.1024 96.1024 0 0 1 727.04 433.0496a7.68 7.68 0 0 0 7.68-7.68v-30.72a7.68 7.68 0 0 0-7.68-7.8336z m-225.28 15.36h217.6v15.7696a111.4624 111.4624 0 0 0-103.68 111.104v117.248a7.5776 7.5776 0 0 0 5.12 7.168 29.44 29.44 0 1 1-20.48 0 7.5776 7.5776 0 0 0 5.12-7.168v-117.248A111.5136 111.5136 0 0 0 501.76 417.9456zM378.88 768.6144H260.5568l25.9584 55.4496h66.4064L378.88 768.6144zM378.88 760.9344H260.5568a7.6288 7.6288 0 0 0-6.4512 3.5328 7.8336 7.8336 0 0 0-0.512 7.424l25.9584 55.4496a7.7824 7.7824 0 0 0 7.168 4.4032h66.56a7.7312 7.7312 0 0 0 6.9632-4.4032l25.9584-55.4496A7.68 7.68 0 0 0 378.88 760.9344z m-106.24 15.36h94.208L348.16 816.384H291.4304zM260.5568 768.6144H378.88v-57.856a20.48 20.48 0 0 0-20.48-20.48H280.832a20.48 20.48 0 0 0-20.48 20.48v57.856h0.2048zM358.656 682.8032h-77.824a28.0064 28.0064 0 0 0-27.9552 27.9552v57.856a7.68 7.68 0 0 0 7.68 7.68H378.88a7.68 7.68 0 0 0 7.68-7.68v-57.856a27.9552 27.9552 0 0 0-27.904-27.9552zM268.2368 760.9344v-50.176a12.5952 12.5952 0 0 1 12.5952-12.5952h77.824a12.5952 12.5952 0 0 1 12.544 12.5952v50.176zM960.512 768.6144h-118.3744l25.9584 55.4496h66.4576l25.9584-55.4496zM960.512 760.9344h-118.3744a7.68 7.68 0 0 0-6.912 10.9568l25.9584 55.4496a7.6288 7.6288 0 0 0 6.912 4.4032h66.56a7.6288 7.6288 0 0 0 6.9632-4.4032L967.68 771.8912a7.68 7.68 0 0 0-6.912-10.9568z m-106.2912 15.36h94.208l-18.7904 40.0896h-56.6272zM842.1376 768.6144h118.3744v-57.856a20.48 20.48 0 0 0-20.48-20.48h-77.824a20.48 20.48 0 0 0-20.48 20.48v57.856h0.4096zM940.2368 682.8032h-77.824a28.0064 28.0064 0 0 0-27.8528 27.9552v57.856a7.68 7.68 0 0 0 7.68 7.68h118.272a7.68 7.68 0 0 0 7.68-7.68v-57.856a28.0064 28.0064 0 0 0-27.9552-27.9552zM849.92 760.9344v-50.176a12.5952 12.5952 0 0 1 12.5952-12.5952h77.824a12.5952 12.5952 0 0 1 12.5952 12.5952v50.176z"  horiz-adv-x="1024" />

    
    <glyph glyph-name="paixu-jiangxu" unicode="&#59228;" d="M746.4 304.4c6-6 9-13.2 9-21.4s-3-15.4-9-21.4l-213-213c-6-6-13.2-9-21.4-9s-15.4 3-21.4 9l-213 213c-6 6-9 13.1-9 21.4 0 8.2 3 15.4 9 21.4 6 6 13.1 9 21.4 9h426c8.3 0 15.4-3 21.4-9z"  horiz-adv-x="1024" />

    
    <glyph glyph-name="paixu-shengxu" unicode="&#59229;" d="M755.4 465.5c0-8.2-3-15.4-9-21.4s-13.2-9-21.4-9H299c-8.2 0-15.4 3-21.4 9s-9 13.1-9 21.4c0 8.2 3 15.4 9 21.4l213 213c6 6 13.1 9 21.4 9 8.2 0 15.4-3 21.4-9l213-213c6-6 9-13.1 9-21.4z"  horiz-adv-x="1024" />

    
    <glyph glyph-name="tongxunlu" unicode="&#58899;" d="M617.9 377.7c18.4 18.5 29.1 44.4 29.1 71.8 0 54.3-41 98.4-91.3 98.4-50.4 0-91.3-44.2-91.3-98.4 0-27.4 10.7-53.3 29.1-71.8-38.2-23.8-62.3-67.9-62.3-116.1 0-9.7 1-19.4 2.9-28.7l16.2 3.8c-1.6 8.1-2.5 16.5-2.5 24.9 0 44.2 23.4 84.6 60 104.2 28.8-19.2 67-19.2 95.8 0 36.6-19.6 60-60 60-104.2 0-8.4-0.8-16.8-2.5-24.9l16.2-3.8c1.9 9.4 2.9 19.1 2.9 28.7 0 48.2-24.1 92.3-62.3 116.1z m-62.2 152.4c41.2 0 74.7-36.1 74.7-80.5 0-24.7-10.6-48.1-28.6-63.3-14.8 6.4-30.3 9.6-46.1 9.6s-31.4-3.2-46.1-9.6c-18 15.2-28.6 38.6-28.6 63.3 0 44.4 33.5 80.5 74.7 80.5z m-25.9-155.7c17 4.6 34.8 4.6 51.8 0-16.7-6.5-35.2-6.5-51.8 0zM705.1 127.9H356.4c-20.6 0-37.4 17.6-37.4 39.4V246c0 7.3 5.6 13.1 12.5 13.1S344 253.2 344 246v-78.8c0-7.3 5.6-13.1 12.5-13.1h348.7c6.9 0 12.5 5.9 12.5 13.1V600.5c0 7.3-5.6 13.1-12.5 13.1H356.4c-6.9 0-12.5-5.9-12.5-13.1v-78.8c0-7.3-5.6-13.1-12.5-13.1s-12.5 5.9-12.5 13.1v78.8c0 21.8 16.7 39.4 37.4 39.4H705c20.6 0 37.4-17.6 37.4-39.4v-433.2c0.1-21.8-16.6-39.4-37.3-39.4zM369.3 456.1h-75.5c-6.6 0-12.1 5.4-12.1 12.1v2.1c0 6.6 5.4 12.1 12.1 12.1h75.5c6.6 0 12.1-5.4 12.1-12.1v-2.1c-0.1-6.7-5.5-12.1-12.1-12.1zM369.3 377.3h-75.5c-6.6 0-12.1 5.4-12.1 12.1v2.1c0 6.6 5.4 12.1 12.1 12.1h75.5c6.6 0 12.1-5.4 12.1-12.1v-2.1c-0.1-6.7-5.5-12.1-12.1-12.1zM369.3 298.5h-75.5c-6.6 0-12.1 5.4-12.1 12.1v2.1c0 6.6 5.4 12.1 12.1 12.1h75.5c6.6 0 12.1-5.4 12.1-12.1v-2.1c-0.1-6.6-5.5-12.1-12.1-12.1z"  horiz-adv-x="1024" />

    
    <glyph glyph-name="dianhua" unicode="&#59030;" d="M687.104-44.032c-30.208 0-52.224 4.096-60.928 6.144-38.912 2.048-91.136 27.648-128.512 49.664-53.248 30.72-112.64 73.728-166.4 120.832-61.44 53.248-115.2 111.616-156.672 168.448-49.152 67.584-80.896 133.632-93.696 196.096-19.968 97.792-9.216 174.08 32.256 226.816 48.64 62.464 120.832 66.048 123.904 66.56h2.048c3.072 0 31.232-1.024 65.024-13.824 46.592-17.92 81.408-50.176 100.352-93.696 14.848-33.792 16.384-65.024 4.608-96.256-9.728-25.6-26.112-46.08-42.496-66.048-14.336-17.408-27.648-34.304-34.816-52.224 0-1.536 0-9.728 11.776-29.696 9.728-16.896 25.6-37.376 45.056-58.88 35.328-39.424 83.456-81.92 127.488-113.664 54.272-38.912 84.48-48.64 94.208-48.128 53.248 2.048 116.736 51.2 135.168 66.048 13.824 11.264 31.232 16.896 49.152 15.872 71.68-4.608 120.32-28.16 144.384-69.12 14.848-25.088 18.944-56.832 12.8-90.624-4.608-24.064-12.8-40.96-13.824-43.008l-0.512-1.536-1.024-1.536c-59.904-94.208-142.336-125.44-200.192-134.656-17.92-2.56-34.816-3.584-49.152-3.584z m-49.152 66.048c1.536-0.512 40.96-9.728 91.136-1.536 65.024 10.752 117.248 46.08 154.624 104.96 6.144 13.824 16.896 49.664 2.048 74.752-16.384 27.648-60.416 36.352-94.72 38.912-2.56 0-4.608-0.512-6.656-2.048-34.816-28.672-103.936-77.312-171.52-80.384h-2.56c-44.544 0-108.544 42.496-154.624 78.336-59.904 46.592-115.712 102.4-148.992 148.992-31.744 44.032-41.984 78.848-31.744 105.984 10.752 27.136 28.672 49.664 44.544 69.632 31.232 38.4 46.592 59.904 29.696 98.816-12.8 28.672-34.816 49.152-66.56 60.928-20.992 8.192-38.4 9.728-43.008 9.728-7.68-0.512-49.664-6.144-77.824-43.52-29.184-38.4-35.84-97.28-19.968-176.128 20.48-100.864 104.448-221.184 229.888-331.264 51.2-44.544 106.496-84.992 156.672-113.664 52.224-30.208 87.04-40.96 102.4-41.472h3.584l3.584-1.024zM752.64 342.016h-3.072c-16.896 1.536-29.184 16.384-27.648 33.28 5.632 58.88-7.168 105.984-37.376 140.288-52.736 59.392-142.336 62.464-143.36 62.464-16.896 0.512-30.208 14.336-29.696 31.232 0.512 16.896 14.336 30.208 31.232 29.696 4.608 0 117.248-4.096 187.392-82.944 41.984-47.104 59.392-110.08 52.224-186.88-1.024-14.848-14.336-27.136-29.696-27.136zM913.92 384.512h-3.584c-16.896 2.048-28.672 17.408-26.624 34.304 11.776 95.744-7.68 172.544-57.344 227.84-95.744 106.496-273.408 104.448-274.944 104.448-16.896-0.512-30.72 13.312-31.232 30.208-0.512 16.896 13.312 30.72 30.208 31.232 2.048 0 52.224 1.024 116.736-13.824 37.888-8.704 73.216-20.992 104.448-36.352 39.936-19.456 73.728-44.544 100.864-74.752 62.464-69.12 87.04-162.304 72.704-276.48-2.56-15.36-15.872-26.624-31.232-26.624z"  horiz-adv-x="1024" />

    
    <glyph glyph-name="pinglun" unicode="&#59006;" d="M896 844.8H128C57.344 844.8 0 787.456 0 716.8v-460.8c0-70.656 57.344-128 128-128h102.4v-210.944L464.896 128H896c70.656 0 128 57.344 128 128V716.8c0 70.656-57.344 128-128 128z m76.8-588.8c0-42.496-34.304-76.8-76.8-76.8H445.44l-56.832-51.2L281.6 31.744V179.2H128c-42.496 0-76.8 34.304-76.8 76.8V716.8c0 42.496 34.304 76.8 76.8 76.8h768c42.496 0 76.8-34.304 76.8-76.8v-460.8zM256 486.4m-51.2 0a51.2 51.2 0 1 1 102.4 0 51.2 51.2 0 1 1-102.4 0ZM512 486.4m-51.2 0a51.2 51.2 0 1 1 102.4 0 51.2 51.2 0 1 1-102.4 0ZM768 486.4m-51.2 0a51.2 51.2 0 1 1 102.4 0 51.2 51.2 0 1 1-102.4 0Z"  horiz-adv-x="1024" />

    
    <glyph glyph-name="xuanzhongzhuangtai-" unicode="&#59000;" d="M512-128c-69.1 0-136.2 13.5-199.3 40.2C251.7-62 197-25.1 150 22c-47 47-83.9 101.8-109.7 162.7C13.5 247.8 0 314.9 0 384c0 69.1 13.5 136.2 40.2 199.3C66 644.3 102.9 699 150 746c47 47 101.8 83.9 162.7 109.7C375.8 882.5 442.9 896 512 896s136.2-13.5 199.3-40.2C772.3 830 827 793.1 874 746c47-47 83.9-101.8 109.7-162.7 26.7-63.1 40.2-130.2 40.2-199.3 0-69.1-13.5-136.2-40.2-199.3C958 123.7 921.1 69 874 22c-47-47-101.8-83.9-162.7-109.7-63.1-26.8-130.2-40.3-199.3-40.3z m0 992c-64.8 0-127.7-12.7-186.8-37.7-57.2-24.2-108.5-58.8-152.6-102.9-44.1-44.1-78.7-95.4-102.9-152.6C44.7 511.7 32 448.8 32 384s12.7-127.7 37.7-186.8c24.2-57.2 58.8-108.5 102.9-152.6s95.4-78.7 152.6-102.9c59.2-25 122-37.7 186.8-37.7s127.7 12.7 186.8 37.7c57.2 24.2 108.5 58.8 152.6 102.9 44.1 44.1 78.7 95.4 102.9 152.6 25 59.2 37.7 122 37.7 186.8s-12.7 127.7-37.7 186.8c-24.2 57.2-58.8 108.5-102.9 152.6-44.1 44.1-95.4 78.7-152.6 102.9C639.7 851.3 576.8 864 512 864zM512 384m-320 0a320 320 0 1 1 640 0 320 320 0 1 1-640 0Z"  horiz-adv-x="1024" />

    


  </font>
</defs>
</svg>
